<svg xmlns="http://www.w3.org/2000/svg" version="1.0" width="608.000000pt" height="132.000000pt" viewBox="0 0 608.000000 132.000000" preserveAspectRatio="xMidYMid meet">

<g transform="translate(0.000000,132.000000) scale(0.100000,-0.100000)" fill="#ffffff" stroke="none">
<path d="M2606 1228 c104 -142 106 -223 6 -316 l-47 -44 -11 168 -11 169 -1 -176 -2 -176 -50 -32 c-70 -45 -144 -123 -170 -178 -49 -104 -46 -257 8 -363 31 -61 107 -122 174 -141 32 -8 39 -14 36 -32 -2 -16 3 -23 19 -25 17 -3 22 3 25 23 2 22 12 29 53 43 99 34 165 103 186 197 32 145 -60 276 -206 292 l-45 6 0 43 c0 41 3 45 74 103 84 69 114 119 123 205 11 103 -39 202 -133 264 -71 48 -79 39 -28 -30z m-77 -604 c-6 -8 -17 -14 -23 -14 -14 -1 -60 -39 -54 -45 3 -3 19 0 37 6 45 16 65 -3 25 -24 -70 -37 -99 -94 -83 -167 10 -49 39 -90 39 -56 0 12 10 16 38 17 35 1 35 2 -11 9 -56 10 -62 13 -54 33 3 9 21 15 47 15 23 1 45 3 48 6 3 3 -18 6 -46 6 -44 0 -52 3 -52 19 0 29 26 44 70 39 22 -2 40 0 40 4 0 5 -20 8 -45 8 -25 0 -45 4 -45 8 0 28 86 64 133 55 13 -3 41 -18 60 -34 45 -37 57 -91 32 -144 -30 -63 -90 -91 -160 -75 l-40 9 25 -19 c35 -27 22 -32 -26 -11 -60 27 -86 69 -92 151 -7 98 16 159 87 229 l56 56 3 -33 c2 -18 -2 -40 -9 -48z m141 -67 c43 -28 68 -72 76 -128 5 -38 1 -51 -25 -91 -29 -45 -90 -88 -126 -88 -23 0 -18 18 8 26 59 18 107 80 107 139 0 57 -29 98 -89 126 -27 13 -50 27 -51 32 0 16 69 6 100 -16z" fill="#ffffff"/>
<path d="M436 657 c-17 -18 -51 -60 -76 -93 -25 -32 -49 -62 -55 -66 -5 -4 -38 -8 -72 -8 l-63 0 -2 48 c-1 26 -2 67 -2 92 -1 39 -4 45 -23 48 l-23 3 0 -200 c0 -194 1 -201 20 -201 16 0 20 7 20 38 0 20 3 61 6 90 l7 52 68 0 68 0 68 -95 c57 -80 72 -95 96 -95 15 0 27 3 27 6 0 4 -26 38 -57 77 -32 38 -68 83 -81 98 l-23 28 76 88 c69 81 91 123 64 123 -7 0 -26 -15 -43 -33z" fill="#ffffff"/>
<path d="M1016 681 c-5 -8 74 -131 135 -210 15 -19 19 -41 19 -112 0 -88 0 -89 25 -89 27 0 25 -8 30 126 1 46 -1 42 103 178 39 52 72 97 72 100 0 3 -11 6 -23 6 -19 0 -38 -21 -91 -101 -47 -70 -72 -99 -84 -97 -9 2 -44 43 -77 92 -61 90 -98 126 -109 107z" fill="#ffffff"/>
<path d="M582 483 l3 -198 178 -3 c152 -2 177 0 177 13 0 12 -26 15 -162 17 l-163 3 0 75 0 75 138 3 c113 2 137 5 137 17 0 13 -23 15 -140 15 -159 0 -146 -9 -134 98 l7 52 158 0 c135 0 159 2 159 15 0 13 -27 15 -180 15 l-180 0 2 -197z" fill="#ffffff"/>
<path d="M1456 658 c-8 -33 -7 -186 2 -192 4 -2 77 -6 162 -7 207 -4 197 -1 202 -59 6 -85 16 -80 -157 -80 -144 0 -155 1 -165 20 -6 11 -20 20 -30 20 -15 0 -20 -7 -20 -29 0 -57 14 -61 205 -61 144 0 176 3 189 16 20 19 23 183 4 202 -8 8 -64 12 -184 12 -95 0 -175 3 -177 8 -2 4 -2 35 1 70 l4 62 154 0 c143 0 155 -1 166 -20 15 -23 58 -27 58 -6 0 8 -4 26 -10 40 l-10 26 -194 0 c-192 0 -194 0 -200 -22z" fill="#ffffff"/>
<path d="M3077 673 c-12 -11 -8 -201 4 -208 5 -4 84 -7 174 -7 90 -1 169 -4 175 -8 7 -4 10 -30 8 -66 l-3 -59 -157 -3 c-150 -2 -157 -2 -163 18 -4 13 -15 20 -31 20 -24 0 -25 -3 -19 -32 13 -58 12 -58 206 -58 172 0 178 1 193 22 18 25 22 163 6 188 -7 12 -44 16 -187 20 l-178 5 -2 45 c-3 96 -13 90 163 90 147 0 156 -1 161 -20 4 -14 14 -20 34 -20 32 0 36 13 17 55 l-11 25 -192 0 c-105 0 -195 -3 -198 -7z" fill="#ffffff"/>
<path d="M3510 661 c0 -19 8 -20 93 -23 l92 -3 3 -183 c2 -183 2 -183 25 -180 22 3 22 5 25 185 l2 182 88 3 c69 2 87 6 87 18 0 13 -31 15 -207 18 -202 2 -208 2 -208 -17z" fill="#ffffff"/>
<path d="M3997 673 c-4 -3 -7 -91 -7 -194 0 -161 2 -188 16 -193 9 -3 18 -6 20 -6 2 0 4 34 4 75 l0 75 93 0 92 0 62 -80 c42 -53 70 -80 83 -80 11 0 20 3 20 7 0 3 -27 39 -61 80 l-60 73 48 0 c79 0 86 10 87 126 0 54 -3 105 -7 112 -6 9 -57 12 -196 12 -103 0 -191 -3 -194 -7z m357 -39 c8 -20 8 -122 0 -152 -6 -22 -8 -22 -163 -20 l-156 3 -3 79 c-2 44 -1 85 2 93 4 10 40 13 160 13 131 0 155 -2 160 -16z" fill="#ffffff"/>
<path d="M4460 475 c0 -176 2 -205 15 -205 13 0 15 29 15 205 0 176 -2 205 -15 205 -13 0 -15 -29 -15 -205z" fill="#ffffff"/>
<path d="M4600 475 c0 -198 1 -205 20 -205 19 0 20 7 20 175 0 96 4 175 8 175 4 0 56 -60 114 -132 59 -73 118 -146 132 -163 14 -16 30 -36 36 -43 6 -6 24 -12 40 -12 l30 0 0 205 c0 198 -1 205 -20 205 -19 0 -20 -7 -20 -114 0 -136 -10 -237 -22 -230 -4 3 -67 82 -139 175 -124 159 -133 169 -165 169 l-34 0 0 -205z" fill="#ffffff"/>
<path d="M5076 658 c-10 -41 -7 -356 5 -363 5 -4 91 -7 191 -7 141 0 182 3 189 13 9 15 12 149 4 171 -4 9 -24 12 -76 10 -59 -3 -70 -6 -67 -20 2 -13 17 -18 61 -20 l58 -3 -3 -57 -3 -57 -167 -3 -168 -2 0 159 c0 123 3 161 14 170 9 8 63 11 167 9 l154 -3 3 -27 c3 -26 28 -38 45 -22 7 7 -13 56 -28 66 -5 4 -92 8 -191 8 -180 0 -182 0 -188 -22z" fill="#ffffff"/>
<path d="M5547 673 c-4 -3 -7 -53 -7 -110 l0 -103 184 0 c114 0 186 -4 188 -10 8 -25 -8 -135 -19 -134 -7 1 -78 2 -157 3 -135 1 -144 2 -149 21 -6 23 -45 27 -53 6 -3 -8 2 -28 11 -45 l16 -31 179 0 c174 0 179 1 194 22 18 25 22 163 6 188 -10 16 -34 18 -253 19 l-118 1 3 68 3 67 157 3 c149 2 158 1 170 -18 13 -21 43 -27 52 -11 3 5 1 23 -5 40 l-11 31 -192 0 c-106 0 -196 -3 -199 -7z" fill="#ffffff"/>
</g>
</svg>