<svg xmlns="http://www.w3.org/2000/svg" version="1.0" width="800.000000pt" height="450.000000pt" viewBox="0 0 800.000000 450.000000" preserveAspectRatio="xMidYMid meet">

<g transform="translate(0.000000,450.000000) scale(0.100000,-0.100000)" fill="#dedbdb" stroke="none">
<path d="M3660 4214 c-173 -52 -316 -97 -319 -99 -2 -2 6 -46 18 -97 26 -113 26 -108 0 -108 -11 0 -100 -16 -197 -35 -97 -19 -235 -44 -307 -55 -71 -12 -150 -26 -175 -32 -25 -5 -78 -9 -119 -9 -62 1 -84 -3 -140 -29 -48 -22 -356 -110 -386 -110 -1 0 -10 18 -19 40 -11 29 -20 38 -32 33 -10 -4 -14 -13 -10 -27 3 -11 9 -31 12 -42 5 -19 -1 -24 -48 -39 -88 -29 -219 -89 -290 -133 l-68 -41 0 37 c0 21 -9 55 -21 76 -25 47 -27 44 116 115 261 130 484 180 1235 281 85 11 212 30 283 42 120 20 127 23 127 45 l0 23 -1160 0 -1160 0 0 -480 c0 -408 2 -480 14 -480 29 0 36 95 36 505 l0 405 893 0 c490 0 978 3 1082 6 238 8 236 -6 -5 -35 -96 -11 -267 -32 -380 -46 -495 -59 -796 -132 -1024 -246 -45 -23 -85 -45 -90 -50 -15 -14 -39 -10 -66 11 -36 28 -74 25 -99 -6 -22 -28 -27 -78 -12 -103 7 -11 -10 -35 -65 -94 -171 -182 -278 -384 -320 -603 -12 -68 -15 -123 -11 -234 7 -205 40 -312 143 -455 23 -33 63 -107 87 -165 25 -58 101 -217 169 -355 195 -395 245 -575 207 -757 -13 -62 -54 -150 -95 -202 -38 -49 -136 -123 -201 -152 -57 -26 -70 -40 -25 -29 49 12 169 94 222 152 92 101 130 201 130 348 0 147 -39 280 -165 555 -102 223 -177 431 -162 446 3 3 13 0 24 -6 12 -8 36 -63 65 -150 44 -130 156 -395 164 -387 2 2 -23 70 -55 150 -50 123 -121 330 -121 351 0 3 11 1 24 -5 14 -7 26 -23 30 -40 3 -15 46 -131 96 -258 149 -380 190 -530 190 -699 0 -204 -59 -350 -200 -491 -57 -58 -59 -59 -107 -55 -44 3 -46 3 -21 -8 16 -7 28 -15 28 -19 0 -11 -142 -76 -205 -93 -33 -9 -85 -20 -115 -24 -47 -6 -55 -11 -58 -30 -3 -22 -2 -23 50 -16 140 17 282 66 369 129 27 19 60 35 72 35 46 0 179 40 240 72 118 63 227 197 271 333 18 57 36 176 29 189 -9 15 -23 -18 -23 -55 0 -53 -36 -164 -78 -239 -68 -124 -203 -227 -348 -264 -34 -9 -67 -16 -73 -16 -7 0 16 32 50 72 114 132 169 288 169 477 0 188 -28 298 -175 676 -115 297 -113 290 -89 281 223 -86 466 -116 644 -78 127 27 197 54 284 113 89 59 146 122 189 209 28 57 32 74 32 150 0 76 -4 93 -33 152 -38 77 -92 130 -171 166 -47 22 -70 27 -141 26 -97 0 -161 -22 -219 -77 -37 -35 -81 -119 -81 -154 0 -36 -14 -27 -39 24 -35 72 -74 116 -130 146 -95 52 -192 46 -276 -18 l-45 -35 26 52 c21 43 91 155 126 202 3 5 21 -7 40 -26 39 -42 86 -55 144 -39 86 24 144 83 144 149 0 40 -13 67 -52 108 l-30 32 139 70 c133 67 431 192 458 192 8 0 17 -9 20 -21 10 -30 41 -20 37 13 -2 24 5 28 135 77 76 28 188 69 248 91 191 68 98 43 -149 -40 -130 -44 -240 -80 -244 -80 -5 0 -18 27 -29 59 l-22 59 67 21 c106 32 519 148 607 170 67 17 87 18 118 9 43 -13 99 0 141 33 28 22 69 96 57 103 -4 3 -16 39 -26 81 -17 66 -17 77 -5 89 17 15 118 56 196 79 l52 15 10 -39 10 -39 -33 0 c-41 0 -85 -34 -85 -65 0 -46 68 -60 115 -23 28 22 30 39 13 151 -3 16 21 26 144 67 161 52 149 53 163 -17 7 -33 6 -33 -34 -33 -47 0 -81 -27 -81 -63 0 -31 18 -47 53 -47 39 0 64 15 82 49 13 26 13 40 -5 133 -31 169 -42 218 -49 218 -3 -1 -148 -44 -321 -96z m331 -46 l6 -38 -53 -20 c-109 -40 -234 -74 -243 -64 -5 5 -12 25 -16 45 l-7 36 134 40 c73 23 142 40 153 40 15 -2 21 -12 26 -39z m-321 -101 l8 -35 -97 -32 c-53 -18 -112 -41 -133 -51 l-36 -18 -12 50 c-7 29 -9 54 -4 59 16 14 249 78 257 70 5 -4 12 -23 17 -43z m-280 -193 c6 -14 10 -36 10 -49 0 -20 -7 -24 -42 -30 -24 -4 -142 -31 -263 -60 -510 -123 -677 -158 -686 -144 -10 18 -2 29 22 29 52 0 125 48 160 105 19 30 21 30 376 102 197 39 370 72 386 72 21 1 30 -5 37 -25z m-120 -127 c-26 -20 -50 -60 -50 -84 0 -25 3 -24 -153 -63 -61 -15 -218 -58 -348 -94 -130 -36 -241 -66 -246 -66 -5 0 -19 27 -30 60 l-22 59 35 10 c19 5 139 35 267 65 127 31 295 71 372 90 154 37 200 44 175 23z m-924 -65 c-4 -10 1 -38 9 -62 8 -24 12 -47 8 -51 -9 -8 -239 -79 -258 -79 -6 0 -23 28 -37 63 l-26 62 52 18 c56 20 223 65 244 66 9 1 11 -6 8 -17z m-321 -134 c14 -29 25 -58 25 -64 0 -6 -33 -23 -72 -39 -40 -15 -124 -54 -186 -87 l-113 -59 -55 25 c-78 36 -72 56 35 124 81 52 292 147 334 151 4 1 19 -23 32 -51z m-506 -24 c31 -39 45 -92 31 -109 -19 -22 -26 -19 -76 31 l-46 46 28 29 c34 35 37 36 63 3z m880 -16 c37 -88 44 -79 -92 -122 -67 -21 -127 -40 -133 -43 -5 -2 -23 24 -39 57 -35 72 -38 69 85 105 47 15 96 30 110 35 43 15 50 11 69 -32z m-951 -93 l42 -46 -71 -66 c-208 -197 -332 -462 -346 -743 -5 -109 11 -259 33 -314 16 -41 -16 -4 -36 42 -129 290 -69 706 141 985 60 80 165 187 183 187 7 0 32 -20 54 -45z m637 5 c21 -42 19 -47 -22 -61 -55 -18 -84 -39 -98 -72 -8 -20 -29 -36 -78 -59 l-65 -30 -51 43 c-28 24 -47 47 -43 50 24 23 304 157 329 158 7 1 19 -12 28 -29z m379 -83 c8 -26 11 -49 7 -52 -4 -2 -59 -22 -122 -43 -176 -61 -264 -98 -394 -166 -95 -50 -125 -61 -143 -55 -12 5 -52 14 -88 20 l-66 11 29 30 c29 31 96 78 111 78 14 0 32 -47 32 -83 l1 -32 15 28 c14 27 14 50 -2 91 -5 12 9 23 57 45 58 26 64 27 89 13 52 -30 135 9 175 82 6 11 57 34 135 61 141 48 141 48 164 -28z m-989 -72 c-14 -38 -25 -87 -25 -115 0 -44 -6 -57 -44 -107 -105 -137 -194 -332 -222 -483 -18 -100 -18 -260 1 -357 19 -97 19 -98 -1 -82 -26 22 -41 61 -57 149 -25 136 -29 219 -18 320 28 254 149 515 312 678 35 34 67 62 71 62 4 0 -4 -29 -17 -65z m101 23 l31 -23 -54 -48 c-29 -27 -53 -45 -53 -40 0 7 42 133 45 133 1 0 15 -10 31 -22z m153 -77 c22 -12 42 -25 45 -29 3 -5 -14 -18 -37 -28 -116 -52 -313 -322 -401 -549 -54 -141 -70 -237 -62 -380 3 -66 9 -135 12 -154 l7 -33 -26 16 c-28 19 -39 54 -58 185 -27 189 4 384 92 570 41 89 144 251 159 251 5 0 11 -9 15 -19 6 -20 55 -58 55 -43 0 4 -4 12 -9 17 -5 6 -14 28 -20 49 -9 36 -8 42 21 79 17 22 52 54 77 72 49 36 51 36 130 -4z m38 -225 c2 -2 -34 -41 -79 -88 -247 -251 -373 -552 -338 -808 6 -45 10 -84 7 -86 -2 -2 -11 2 -20 9 -52 38 -47 358 9 524 60 181 220 444 277 457 23 5 138 -1 144 -8z m107 -60 c60 -56 46 -131 -31 -170 -76 -38 -133 0 -88 60 20 26 19 60 -2 69 -15 6 -12 12 21 41 22 19 45 34 52 34 7 0 29 -15 48 -34z m520 -356 c64 -32 130 -108 151 -171 24 -72 17 -167 -19 -247 -59 -128 -231 -251 -404 -287 -142 -29 -411 -11 -529 36 -27 11 -24 12 47 28 182 40 288 142 320 308 l12 62 32 -42 c49 -64 106 -92 191 -92 119 0 195 61 195 157 0 47 -23 79 -66 92 -30 9 -69 -11 -83 -42 -25 -54 22 -103 84 -88 29 7 30 5 11 -32 -49 -95 -238 -94 -310 2 -88 116 -25 274 133 333 57 21 176 13 235 -17z m-628 -9 c141 -64 206 -258 135 -406 -31 -65 -95 -131 -160 -164 -89 -46 -211 -63 -277 -39 -29 10 -35 18 -45 62 -6 28 -13 98 -15 156 l-5 105 21 -37 c30 -55 82 -90 140 -96 88 -8 150 36 150 107 0 47 -16 69 -57 77 -27 5 -37 1 -63 -24 -35 -35 -37 -51 -11 -83 14 -18 29 -24 60 -24 23 0 41 -1 41 -2 0 -2 -15 -12 -32 -23 -91 -55 -213 11 -225 124 -11 98 43 206 129 255 64 37 148 42 214 12z m-554 -528 c16 -19 63 -171 55 -179 -2 -2 -16 22 -31 55 -54 122 -64 170 -24 124z" fill="#dedbdb"/>
<path d="M6469 4276 c-182 -76 -294 -155 -342 -244 -30 -55 -45 -151 -29 -191 8 -23 9 -22 16 18 15 96 100 219 205 295 27 20 52 36 55 36 4 0 -21 -28 -56 -63 -35 -35 -75 -86 -90 -113 -37 -68 -90 -214 -77 -214 25 0 109 52 142 89 47 52 60 79 91 185 31 108 67 171 112 198 19 11 34 22 34 24 0 5 2 6 -61 -20z" fill="#dedbdb"/>
<path d="M5996 4249 c-4 -26 -23 -73 -43 -105 -92 -149 -106 -199 -84 -299 7 -30 7 -30 24 19 41 118 112 286 115 271 5 -20 -55 -219 -79 -267 -27 -52 -6 -49 47 7 27 27 48 61 55 87 14 53 6 226 -13 288 l-14 45 -8 -46z" fill="#dedbdb"/>
<path d="M500 4205 c0 -36 33 -212 50 -270 58 -186 142 -290 320 -395 58 -34 58 -33 -21 60 -114 135 -249 342 -249 381 0 7 19 -14 41 -47 23 -32 75 -97 117 -144 41 -47 101 -121 134 -165 38 -51 58 -71 54 -55 -3 14 -12 55 -21 93 -28 126 -71 185 -228 306 -77 60 -124 115 -167 192 -16 30 -30 50 -30 44z" fill="#dedbdb"/>
<path d="M7127 4155 c-30 -162 -45 -193 -139 -281 -145 -135 -349 -193 -637 -181 -181 8 -292 26 -696 115 -622 138 -712 152 -987 159 -167 4 -226 2 -310 -12 -141 -23 -256 -58 -367 -111 -51 -24 -102 -44 -112 -44 -11 0 -18 -4 -16 -8 1 -5 -41 -41 -93 -79 -52 -39 -102 -79 -110 -88 -102 -118 -156 -204 -191 -305 -19 -53 -23 -86 -23 -185 -1 -142 17 -198 92 -298 227 -301 721 -221 780 126 4 22 14 43 22 47 8 4 54 26 101 49 193 91 300 269 255 423 -33 116 -119 199 -240 234 -155 44 -334 -25 -392 -151 -42 -88 -24 -178 49 -242 122 -107 327 -44 327 102 0 25 -8 43 -25 60 -30 30 -54 31 -89 4 -49 -39 -27 -101 42 -115 l32 -6 -20 -28 c-55 -77 -174 -78 -253 -2 -42 39 -57 75 -57 132 0 206 306 296 482 141 20 -18 48 -55 62 -83 57 -114 21 -258 -87 -353 -48 -42 -172 -115 -195 -115 -6 0 -15 14 -21 32 -27 78 -112 148 -205 169 -72 16 -152 -2 -211 -47 -25 -19 -47 -34 -49 -34 -11 0 -48 110 -53 154 -10 95 46 217 138 302 163 149 417 219 707 195 166 -14 375 -52 592 -108 474 -121 610 -154 756 -187 444 -97 584 -117 829 -117 218 0 364 30 515 106 120 60 244 168 307 268 39 61 39 77 0 22 -109 -156 -290 -270 -517 -326 -83 -20 -119 -23 -285 -23 -289 0 -487 34 -1205 209 -581 141 -766 177 -995 191 -259 15 -509 -50 -683 -180 -168 -125 -236 -334 -160 -497 22 -49 24 -59 12 -80 -18 -33 -17 -114 2 -155 17 -35 86 -104 104 -104 6 0 -5 14 -25 32 -66 57 -92 143 -65 213 l10 27 41 -37 c23 -21 65 -48 93 -61 52 -24 175 -47 211 -39 11 2 42 6 69 9 l48 6 -7 -37 c-46 -245 -362 -353 -593 -203 -92 59 -167 165 -191 270 -15 66 -13 198 4 264 48 184 222 374 444 486 88 44 246 94 366 116 76 14 149 18 310 18 275 0 376 -14 905 -125 638 -134 911 -156 1169 -93 163 39 318 143 384 256 33 57 59 155 55 206 l-4 37 -7 -40z m-2982 -934 c59 -26 101 -66 126 -117 26 -55 22 -59 -62 -68 -110 -13 -258 33 -318 98 -23 25 -24 27 -7 45 53 59 180 79 261 42z" fill="#dedbdb"/>
<path d="M4100 4025 l0 -25 770 0 770 0 0 25 0 25 -770 0 -770 0 0 -25z" fill="#dedbdb"/>
<path d="M3727 3783 c18 -2 50 -2 70 0 21 2 7 4 -32 4 -38 0 -55 -2 -38 -4z" fill="#dedbdb"/>
<path d="M3570 3770 c-22 -5 -6 -6 40 -3 41 3 77 7 79 9 7 7 -83 2 -119 -6z" fill="#dedbdb"/>
<path d="M3493 3753 c9 -2 23 -2 30 0 6 3 -1 5 -18 5 -16 0 -22 -2 -12 -5z" fill="#dedbdb"/>
<path d="M394 3676 c24 -23 61 -66 83 -96 73 -100 133 -140 233 -155 39 -6 43 -5 30 7 -27 26 -214 174 -255 201 -22 15 -34 27 -27 27 33 0 197 -102 275 -171 26 -22 47 -38 47 -35 0 4 -11 29 -25 56 -65 129 -155 178 -372 203 l-32 3 43 -40z" fill="#dedbdb"/>
<path d="M5185 3658 c43 -16 101 -57 260 -183 216 -172 213 -189 -5 -34 -92 65 -304 199 -315 199 -16 0 102 -154 150 -198 84 -74 154 -107 301 -142 71 -16 139 -34 152 -40 34 -15 27 -5 -27 34 -27 20 -90 89 -140 154 -50 64 -112 132 -137 151 -60 46 -135 70 -209 70 -55 -1 -57 -1 -30 -11z" fill="#dedbdb"/>
<path d="M3580 3620 c-20 -6 -21 -8 -5 -8 11 0 34 4 50 8 27 7 27 8 5 8 -14 0 -36 -4 -50 -8z" fill="#dedbdb"/>
<path d="M3528 3603 c7 -3 16 -2 19 1 4 3 -2 6 -13 5 -11 0 -14 -3 -6 -6z" fill="#dedbdb"/>
<path d="M3488 3593 c7 -3 16 -2 19 1 4 3 -2 6 -13 5 -11 0 -14 -3 -6 -6z" fill="#dedbdb"/>
<path d="M3448 3583 c7 -3 16 -2 19 1 4 3 -2 6 -13 5 -11 0 -14 -3 -6 -6z" fill="#dedbdb"/>
<path d="M3408 3573 c7 -3 16 -2 19 1 4 3 -2 6 -13 5 -11 0 -14 -3 -6 -6z" fill="#dedbdb"/>
<path d="M3298 3543 c7 -3 16 -2 19 1 4 3 -2 6 -13 5 -11 0 -14 -3 -6 -6z" fill="#dedbdb"/>
<path d="M3228 3523 c7 -3 16 -2 19 1 4 3 -2 6 -13 5 -11 0 -14 -3 -6 -6z" fill="#dedbdb"/>
<path d="M3090 3485 c-19 -7 -28 -13 -20 -13 8 0 31 6 50 13 19 7 28 13 20 13 -8 0 -31 -6 -50 -13z" fill="#dedbdb"/>
<path d="M2816 3189 c-52 -41 -52 -136 1 -237 l31 -58 -55 -30 c-78 -41 -113 -84 -113 -136 0 -39 5 -47 86 -125 l86 -83 -41 0 c-50 0 -81 -27 -81 -69 0 -83 144 -97 164 -16 9 35 -15 77 -85 152 -69 74 -82 115 -52 165 20 35 100 101 112 94 25 -16 128 -167 143 -210 17 -51 17 -51 18 -15 0 63 -32 130 -112 231 l-22 28 21 22 c35 39 53 85 53 138 0 83 -36 142 -98 160 -25 7 -36 4 -56 -11z m91 -101 c18 -16 23 -32 23 -67 0 -47 -29 -111 -50 -111 -17 0 -50 81 -50 124 0 38 22 76 43 76 6 0 21 -10 34 -22z" fill="#dedbdb"/>
<path d="M1000 1650 l0 -540 25 0 25 0 0 540 0 540 -25 0 -25 0 0 -540z" fill="#dedbdb"/>
<path d="M1851 1724 c-30 -8 -57 -16 -59 -18 -2 -3 23 -7 55 -11 32 -4 122 -20 200 -36 79 -15 173 -32 210 -36 l68 -7 -45 -8 c-53 -10 -132 -3 -255 23 -137 28 -265 47 -265 38 0 -15 86 -81 140 -107 49 -24 66 -27 165 -27 95 0 122 4 195 29 47 15 108 40 137 55 l52 26 -77 0 c-66 0 -97 7 -213 48 -149 52 -208 58 -308 31z" fill="#dedbdb"/>
<path d="M1790 1537 c0 -2 21 -18 48 -35 52 -34 215 -197 167 -167 -16 10 -69 51 -117 91 -134 112 -156 119 -114 37 45 -89 123 -141 254 -168 91 -20 102 -19 67 6 -17 12 -48 44 -70 72 -79 101 -127 147 -164 157 -35 10 -71 13 -71 7z" fill="#dedbdb"/>
<path d="M1520 1425 c0 -5 5 -17 10 -25 5 -8 10 -10 10 -5 0 6 -5 17 -10 25 -5 8 -10 11 -10 5z" fill="#dedbdb"/>
<path d="M1275 1068 c-16 -6 -42 -22 -58 -36 -100 -94 -4 -263 149 -263 140 0 206 116 131 230 -42 63 -148 97 -222 69z m163 -45 c37 -27 72 -81 72 -110 0 -104 -128 -167 -223 -110 -50 31 -77 73 -77 122 0 49 19 79 68 105 46 25 121 22 160 -7z" fill="#dedbdb"/>
</g>
</svg>